<svg width="24" height="24" viewBox="0 0 24 24" fill="none" xmlns="http://www.w3.org/2000/svg">
<g clip-path="url(#clip0_5223_183127)">
<path fill-rule="evenodd" clip-rule="evenodd" d="M12 22C17.5228 22 22 17.5228 22 12C22 6.47715 17.5228 2 12 2C6.47715 2 2 6.47715 2 12C2 17.5228 6.47715 22 12 22ZM16.8839 10.8839C17.372 10.3957 17.372 9.60427 16.8839 9.11612C16.3957 8.62796 15.6043 8.62796 15.1161 9.11612L11 13.2322L8.88388 11.1161C8.39573 10.628 7.60427 10.628 7.11612 11.1161C6.62796 11.6043 6.62796 12.3957 7.11612 12.8839L10.1161 15.8839C10.6043 16.372 11.3957 16.372 11.8839 15.8839L16.8839 10.8839Z" fill="#00AB56"/>
</g>
<defs>
<clipPath id="clip0_5223_183127">
<rect width="20" height="20" fill="white" transform="translate(2 2)"/>
</clipPath>
</defs>
</svg>
