<svg width="14" height="14" viewBox="0 0 14 14" fill="none" xmlns="http://www.w3.org/2000/svg">
<path d="M4.13807 3.19526C3.87772 2.93491 3.45561 2.93491 3.19526 3.19526C2.93491 3.45561 2.93491 3.87772 3.19526 4.13807L6.05719 7L3.19526 9.86193C2.93491 10.1223 2.93491 10.5444 3.19526 10.8047C3.45561 11.0651 3.87772 11.0651 4.13807 10.8047L7 7.94281L9.86193 10.8047C10.1223 11.0651 10.5444 11.0651 10.8047 10.8047C11.0651 10.5444 11.0651 10.1223 10.8047 9.86193L7.94281 7L10.8047 4.13807C11.0651 3.87772 11.0651 3.45561 10.8047 3.19526C10.5444 2.93491 10.1223 2.93491 9.86193 3.19526L7 6.05719L4.13807 3.19526Z" fill="#515158"/>
</svg>
