<svg width="20" height="20" viewBox="0 0 20 20" fill="none" xmlns="http://www.w3.org/2000/svg">
<g clip-path="url(#clip0_5205_217734)">
<path fill-rule="evenodd" clip-rule="evenodd" d="M1.66675 2.49984C1.66675 2.0396 2.03984 1.6665 2.50008 1.6665H17.5001C17.9603 1.6665 18.3334 2.0396 18.3334 2.49984V4.65466C18.3334 5.09669 18.1578 5.52061 17.8453 5.83317L12.5001 11.1783V15.8332C12.5001 16.1488 12.3217 16.4374 12.0394 16.5785L8.70609 18.2452C8.44777 18.3744 8.14099 18.3606 7.89531 18.2087C7.64963 18.0569 7.50008 17.7887 7.50008 17.4998V11.1783L2.1549 5.83317C1.84234 5.52061 1.66675 5.09669 1.66675 4.65466V2.49984ZM3.33341 3.33317V4.65466L8.92267 10.2439C9.07895 10.4002 9.16675 10.6122 9.16675 10.8332V16.1515L10.8334 15.3181V10.8332C10.8334 10.6122 10.9212 10.4002 11.0775 10.2439L16.6667 4.65466V3.33317H3.33341Z" fill="#1A94FF"/>
</g>
<defs>
<clipPath id="clip0_5205_217734">
<rect width="16.6667" height="16.6667" fill="white" transform="translate(1.66675 1.6665)"/>
</clipPath>
</defs>
</svg>
