<svg width="20" height="20" viewBox="0 0 20 20" fill="none" xmlns="http://www.w3.org/2000/svg">
<g clip-path="url(#clip0_5205_217744)">
<path fill-rule="evenodd" clip-rule="evenodd" d="M5.24416 1.91058C5.5696 1.58514 6.09723 1.58514 6.42267 1.91058L9.756 5.24392C10.0814 5.56935 10.0814 6.09699 9.756 6.42243C9.43057 6.74786 8.90293 6.74786 8.57749 6.42243L6.66675 4.51168V15.8332C6.66675 16.2934 6.29365 16.6665 5.83342 16.6665C5.37318 16.6665 5.00008 16.2934 5.00008 15.8332V4.51168L3.08934 6.42243C2.7639 6.74786 2.23626 6.74786 1.91083 6.42243C1.58539 6.09699 1.58539 5.56935 1.91083 5.24392L5.24416 1.91058ZM14.1667 3.33317C14.627 3.33317 15.0001 3.70627 15.0001 4.1665L15.0001 15.488L16.9108 13.5772C17.2363 13.2518 17.7639 13.2518 18.0893 13.5772C18.4148 13.9027 18.4148 14.4303 18.0893 14.7558L14.756 18.0891C14.5997 18.2454 14.3878 18.3332 14.1667 18.3332C13.9457 18.3332 13.7338 18.2454 13.5775 18.0891L10.2442 14.7558C9.91872 14.4303 9.91872 13.9027 10.2442 13.5772C10.5696 13.2518 11.0972 13.2518 11.4227 13.5772L13.3334 15.488L13.3334 4.1665C13.3334 3.70627 13.7065 3.33317 14.1667 3.33317Z" fill="#1A94FF"/>
</g>
<defs>
<clipPath id="clip0_5205_217744">
<rect width="16.6667" height="16.6667" fill="white" transform="translate(1.66675 1.6665)"/>
</clipPath>
</defs>
</svg>
