<svg width="16" height="16" viewBox="0 0 16 16" xmlns="http://www.w3.org/2000/svg">
<path d="M8.5978 2.53862C8.48549 2.31106 8.25373 2.16699 7.99997 2.16699C7.74621 2.16699 7.51445 2.31106 7.40215 2.53862L5.71605 5.95502L1.94582 6.50287C1.6947 6.53936 1.48607 6.71525 1.40765 6.9566C1.32923 7.19794 1.39463 7.46287 1.57634 7.64L4.30451 10.2993L3.66048 14.0543C3.61758 14.3044 3.72039 14.5572 3.92569 14.7063C4.13099 14.8555 4.40316 14.8752 4.62778 14.7571L7.99997 12.9842L11.3722 14.7571C11.5968 14.8752 11.869 14.8555 12.0743 14.7063C12.2796 14.5572 12.3824 14.3044 12.3395 14.0543L11.6954 10.2993L14.4236 7.64C14.6053 7.46287 14.6707 7.19794 14.5923 6.9566C14.5139 6.71525 14.3052 6.53936 14.0541 6.50287L10.2839 5.95502L8.5978 2.53862Z"/>
</svg>
